<svg xmlns="http://www.w3.org/2000/svg" xmlns:xlink="http://www.w3.org/1999/xlink" version="1.1" width="1000" height="1000" viewBox="0 0 1000 1000" xml:space="preserve">
<desc>Created with Fabric.js 3.5.0</desc>
<defs>
</defs>
<rect x="0" y="0" width="100%" height="100%" fill="#ffffff"/>
<g transform="matrix(0.0539 0 0 0.0539 73.0406 68.9406)" id="747512">
<g style="" vector-effect="non-scaling-stroke">
		<g transform="matrix(1 0 0 1 0 0)">
<rect style="stroke: none; stroke-width: 1; stroke-dasharray: none; stroke-linecap: butt; stroke-dashoffset: 0; stroke-linejoin: miter; stroke-miterlimit: 4; is-custom-font: none; font-file-url: none; fill: rgb(1,5,54); fill-rule: nonzero; opacity: 1;" x="-1000" y="-750" rx="0" ry="0" width="2000" height="1500"/>
</g>
		<g transform="matrix(2.7778 0 0 2.7778 0.0036 0.0038)" id="tight-bounds">
<path style="stroke: none; stroke-width: 1; stroke-dasharray: none; stroke-linecap: butt; stroke-dashoffset: 0; stroke-linejoin: miter; stroke-miterlimit: 10; is-custom-font: none; font-file-url: none; fill: rgb(251,251,248); fill-rule: nonzero; opacity: 1;" transform=" translate(-160, -180.0001)" d="M 20.961 227.22 l 3.726 4.658 l -1.863 -6.056 c -0.466 -2.795 -3.726 0.466 -1.863 1.398 M 25.153 224.425 c 1.397 2.329 2.795 4.658 2.795 6.987 c 0 3.261 2.795 4.658 5.123 5.589 c -3.261 -3.726 -5.124 -13.974 -7.918 -12.576 M 204.017 26.929 c 7.918 0 15.371 -0.932 23.756 0.931 c 20.495 5.124 37.729 15.371 49.374 29.811 l 32.606 52.169 c 1.397 13.042 4.192 27.482 3.726 43.319 c 3.261 0 2.795 -4.658 6.521 -5.59 c -3.726 9.316 -5.59 20.961 -6.521 34.469 c -2.329 -7.453 0 -18.632 0.466 -24.687 c -3.261 5.124 -5.124 1.397 -5.124 -0.932 c 0.466 -3.726 -1.397 -3.261 -2.795 -4.658 c -5.124 -4.658 -8.384 -9.782 -12.11 -17.7 c 2.329 -6.055 2.795 -14.905 -4.658 -19.563 c -2.329 -1.397 -5.124 -3.726 -6.521 -7.453 c -1.863 -5.124 -5.124 -11.179 -4.193 -19.097 c 0.466 -2.329 -6.987 5.124 -11.179 1.863 c -18.166 -12.576 -36.332 -27.016 -58.224 -39.127 c -11.645 0 -20.029 -4.192 -24.221 -9.316 c -3.726 -4.658 -0.932 -10.713 4.658 -11.179 c 3.261 0 6.987 -0.932 9.782 0.932 c 0.466 -1.863 2.329 -4.192 4.657 -4.192 M 157.904 16.215 l 0.932 0.466 c 4.658 0.932 6.987 7.453 12.11 5.124 c 0 3.261 0.466 6.521 -0.466 8.85 c -1.397 3.726 -5.59 3.726 -8.85 3.726 c -31.208 -1.863 -49.374 11.179 -68.471 22.358 c -5.124 3.261 -10.713 5.59 -14.906 9.782 c -20.029 18.632 -41.921 35.866 -47.045 70.335 l -4.192 38.195 c -0.466 4.192 -5.124 8.384 -4.192 13.508 l 3.26 22.824 c -3.261 -3.261 -5.124 0.932 -4.192 2.795 c 0.466 1.397 2.329 6.055 5.124 1.863 c 3.726 6.987 7.453 20.495 12.576 26.55 c 15.837 18.632 36.332 35.4 53.101 52.169 c 4.192 -0.932 7.453 -0.932 8.384 -3.727 c 1.397 2.795 -1.397 5.59 -3.726 6.056 c 7.453 4.658 15.837 8.85 27.016 9.781 c 14.44 0.932 27.948 3.261 40.524 6.522 c 6.521 -1.863 13.042 -2.795 20.029 -3.261 c 2.329 0 3.726 -3.726 6.521 -4.658 l 0.466 -4.658 c 2.795 4.192 2.329 -1.397 0.466 -4.192 c 3.261 2.795 4.192 5.124 5.589 6.987 c 0 -1.397 3.726 -6.521 3.727 -0.466 l 0.931 -6.055 c 1.397 -0.932 1.863 5.124 3.261 0.931 c 1.397 -4.192 4.192 -0.932 6.987 -2.329 c -0.932 1.863 -0.466 5.59 2.794 3.261 l 3.727 -3.261 c 2.329 5.59 6.055 3.261 7.918 2.329 c 20.495 -13.042 40.99 -28.413 60.553 -43.784 l -0.466 6.055 l 2.329 -7.453 c 2.329 2.329 4.192 0.466 5.124 -0.931 c 2.795 -4.658 6.521 -9.316 12.577 -13.508 c -7.453 20.029 -16.303 35.866 -27.482 48.908 l -4.658 5.59 c 0 3.261 -0.932 7.453 -4.658 7.918 c -1.863 0.466 -5.59 -0.932 -8.384 1.863 c -1.397 1.863 3.261 5.59 -0.466 2.795 c -3.261 -2.329 -6.521 0 -10.248 0.932 c -2.795 0.932 1.863 3.726 2.795 5.589 c 0.932 1.863 1.863 3.726 1.398 6.056 l -5.124 -5.59 c -6.055 3.261 -9.782 9.316 -14.906 13.974 c -2.329 1.863 -1.397 5.124 -1.397 7.918 c -3.261 0 -6.987 -0.932 -8.85 0.932 c -1.397 1.863 -0.932 4.658 -0.932 7.453 c -4.658 -0.466 -5.124 -7.453 -9.315 -6.056 c -4.192 0.932 -8.85 1.397 -12.577 3.727 c 2.795 5.59 -4.658 2.329 -3.726 3.26 c -6.987 -4.192 -13.042 -7.453 -20.495 -4.658 c -15.837 -5.124 -35.4 -2.795 -49.84 -0.931 c 0 -2.329 0.466 -4.658 -0.466 -5.124 c -0.932 2.329 -3.726 1.397 -3.26 1.397 c -8.85 -6.055 -17.7 -9.782 -27.016 -14.905 c -8.384 0.932 -16.303 -3.261 -18.632 -5.59 c -6.521 -6.055 -13.974 -2.795 -20.029 -4.192 c -13.042 -3.261 -17.7 -16.769 -19.098 -26.084 c -0.932 -4.658 -4.658 -6.521 -6.055 -6.056 c -6.055 -19.563 -15.371 -37.263 -22.824 -55.429 c -1.863 -4.658 -1.397 -9.316 -1.397 -14.44 c 2.329 0.932 4.658 0.466 4.192 -2.794 c -2.329 -15.371 -7.918 -27.016 -13.974 -38.195 c 3.261 -15.837 3.726 -34.469 11.179 -48.443 c 6.521 -12.576 18.632 -19.098 27.016 -29.811 c 2.795 -3.726 2.795 -8.85 5.59 -12.11 c 9.316 -9.316 18.632 -19.098 28.879 -27.482 c 4.658 -3.726 10.247 0 17.234 -1.397 c 2.329 -8.384 11.645 -15.837 20.495 -13.508 c 3.726 0.932 11.179 -8.85 13.508 -9.782 c 3.726 -1.397 1.863 3.726 1.863 6.987 c 8.85 -6.987 20.961 -10.713 32.14 -14.906" stroke-linecap="round"/>
</g>
		<g transform="matrix(6.7907 0 0 6.7907 0.0002 0.0011)" id="text-0">
<path style="stroke: none; stroke-width: 1; stroke-dasharray: none; stroke-linecap: butt; stroke-dashoffset: 0; stroke-linejoin: miter; stroke-miterlimit: 4; is-custom-font: none; font-file-url: none; fill: rgb(251,251,248); fill-rule: nonzero; opacity: 1;" transform=" translate(-18.46, 20.945)" d="M 38.43 -49.02 L 38.43 -49.02 Q 37.74 -48.05 36.99 -47.19 Q 36.23 -46.34 35.11 -45.85 L 35.11 -45.85 Q 34.52 -42.48 34.16 -39.06 Q 33.79 -35.64 33.37 -32.23 Q 32.96 -28.81 32.45 -25.42 Q 31.93 -22.02 31.05 -18.7 L 31.05 -18.7 L 31.1 -18.12 Q 31.2 -17.14 30.86 -16.26 Q 30.52 -15.38 30.57 -14.36 L 30.57 -14.36 Q 29.88 -12.65 29.39 -10.57 Q 28.91 -8.5 28.81 -6.64 L 28.81 -6.64 Q 28.32 -5.81 28 -4.83 Q 27.69 -3.86 27.37 -2.86 Q 27.05 -1.86 26.66 -0.95 Q 26.27 -0.05 25.63 0.68 L 25.63 0.68 Q 25.49 1.81 25.07 2.81 Q 24.66 3.81 24.15 4.79 Q 23.63 5.76 23.17 6.71 Q 22.71 7.67 22.51 8.74 L 22.51 8.74 Q 21.68 10.01 20.85 11.21 Q 20.02 12.4 19.34 13.72 L 19.34 13.72 Q 18.7 14.01 18.24 14.38 Q 17.77 14.75 17.33 15.06 Q 16.89 15.38 16.33 15.63 Q 15.77 15.87 14.99 15.87 L 14.99 15.87 Q 14.79 15.87 14.62 15.84 Q 14.45 15.82 14.26 15.82 L 14.26 15.82 Q 13.57 15.28 12.89 14.77 Q 12.21 14.26 11.43 13.87 L 11.43 13.87 Q 11.43 13.57 11.35 13.38 Q 11.28 13.18 11.23 12.99 Q 11.18 12.79 11.18 12.6 Q 11.18 12.4 11.28 12.11 L 11.28 12.11 Q 10.84 11.82 10.28 11.06 Q 9.72 10.3 9.72 9.77 L 9.72 9.77 Q 9.72 9.28 10.06 9.28 L 10.06 9.28 Q 9.96 8.79 9.74 8.33 Q 9.52 7.86 9.52 7.37 L 9.52 7.37 Q 9.52 7.03 9.72 6.64 L 9.72 6.64 Q 9.18 5.37 8.74 4.03 Q 8.3 2.69 8.15 1.27 L 8.15 1.27 Q 7.67 0.63 7.4 -0.22 Q 7.13 -1.07 6.98 -2 Q 6.84 -2.93 6.74 -3.83 Q 6.64 -4.74 6.49 -5.52 L 6.49 -5.52 Q 6.45 -5.81 6.25 -6.47 Q 6.05 -7.13 6.05 -7.37 L 6.05 -7.37 Q 6.05 -7.67 6.18 -7.81 Q 6.3 -7.96 6.4 -8.2 L 6.4 -8.2 Q 5.81 -10.55 5.44 -12.94 Q 5.08 -15.33 4.76 -17.72 Q 4.44 -20.12 4.03 -22.49 Q 3.61 -24.85 2.88 -27.15 L 2.88 -27.15 L 2.88 -27.59 Q 2.88 -29.15 1.66 -30.08 L 1.66 -30.08 Q 1.9 -30.81 1.9 -31.3 L 1.9 -31.3 Q 1.9 -31.93 1.73 -32.52 Q 1.56 -33.11 1.37 -33.69 Q 1.17 -34.28 1.1 -34.86 Q 1.03 -35.45 1.17 -36.04 L 1.17 -36.04 Q 0.63 -36.62 0.29 -37.3 Q -0.05 -37.99 -0.59 -38.48 L -0.59 -38.48 L -0.63 -38.77 Q -0.63 -39.01 -0.51 -39.21 Q -0.39 -39.4 -0.39 -39.65 L -0.39 -39.65 Q -0.39 -39.99 -0.56 -40.23 Q -0.73 -40.48 -0.95 -40.67 Q -1.17 -40.87 -1.34 -41.06 Q -1.51 -41.26 -1.51 -41.5 L -1.51 -41.5 Q -1.51 -42.09 -1.12 -42.43 Q -0.73 -42.77 -0.24 -43.04 Q 0.24 -43.31 0.71 -43.6 Q 1.17 -43.9 1.32 -44.43 L 1.32 -44.43 Q 1.71 -44.34 2.1 -44.31 Q 2.49 -44.29 2.88 -44.09 L 2.88 -44.09 Q 2.93 -44.14 2.93 -44.24 L 2.93 -44.24 Q 2.93 -44.38 2.47 -44.51 Q 2 -44.63 1.86 -44.82 L 1.86 -44.82 Q 2.25 -44.92 2.44 -44.92 L 2.44 -44.92 Q 3.42 -44.92 4.32 -44.43 Q 5.22 -43.95 6.05 -43.41 L 6.05 -43.41 Q 6.15 -42.97 6.1 -42.5 Q 6.05 -42.04 6.4 -41.65 L 6.4 -41.65 Q 6.35 -41.41 6.37 -41.21 Q 6.4 -41.02 6.4 -40.82 L 6.4 -40.82 Q 6.4 -40.58 6.32 -40.41 Q 6.25 -40.23 6.05 -40.23 L 6.05 -40.23 Q 6.4 -39.65 6.52 -38.82 Q 6.64 -37.99 6.76 -37.11 Q 6.88 -36.23 7.08 -35.4 Q 7.28 -34.57 7.81 -33.94 L 7.81 -33.94 Q 7.71 -33.64 7.69 -33.35 Q 7.67 -33.06 7.67 -32.71 L 7.67 -32.71 Q 7.67 -31.15 8.06 -29.64 Q 8.45 -28.13 8.45 -26.56 L 8.45 -26.56 Q 8.45 -25.63 8.15 -24.85 L 8.15 -24.85 Q 8.15 -24.41 8.45 -24.15 Q 8.74 -23.88 8.84 -23.44 L 8.84 -23.44 Q 8.59 -22.85 8.59 -22.31 L 8.59 -22.31 Q 8.59 -21.19 9.03 -20.19 Q 9.47 -19.19 9.47 -18.12 L 9.47 -18.12 Q 9.47 -17.77 9.38 -17.48 Q 9.28 -17.19 9.18 -16.94 L 9.18 -16.94 Q 9.62 -16.5 9.64 -15.82 Q 9.67 -15.14 10.06 -14.7 L 10.06 -14.7 Q 10.01 -14.45 9.99 -14.21 Q 9.96 -13.96 9.72 -13.82 L 9.72 -13.82 Q 9.96 -13.48 9.99 -12.92 Q 10.01 -12.35 10.4 -12.26 L 10.4 -12.26 Q 10.3 -12.01 10.25 -11.82 Q 10.21 -11.62 10.21 -11.38 L 10.21 -11.38 Q 10.21 -10.84 10.35 -10.4 L 10.35 -10.4 L 10.64 -9.52 Q 10.79 -9.08 10.86 -8.59 Q 10.94 -8.11 10.74 -7.52 L 10.74 -7.52 Q 10.94 -7.23 11.06 -6.84 Q 11.18 -6.45 11.28 -6.03 Q 11.38 -5.62 11.57 -5.3 Q 11.77 -4.98 12.16 -4.88 L 12.16 -4.88 Q 12.21 -4.59 11.94 -4.59 Q 11.67 -4.59 11.67 -4.35 L 11.67 -4.35 Q 11.67 -3.96 11.96 -3.39 Q 12.26 -2.83 12.5 -2.59 L 12.5 -2.59 Q 12.45 -2.39 12.45 -2.2 L 12.45 -2.2 L 12.45 -1.76 Q 12.45 -1.07 12.65 -0.37 Q 12.84 0.34 13.01 1.05 Q 13.18 1.76 13.28 2.44 Q 13.38 3.13 13.18 3.71 L 13.18 3.71 Q 13.57 4.39 13.87 5.18 Q 14.16 5.96 14.79 6.49 L 14.79 6.49 Q 14.79 7.32 15.14 8.08 Q 15.48 8.84 16.02 9.52 L 16.02 9.52 Q 16.5 9.52 16.75 9.2 Q 16.99 8.89 17.14 8.5 Q 17.29 8.11 17.48 7.76 Q 17.68 7.42 18.12 7.37 L 18.12 7.37 Q 18.16 6.88 18.38 6.57 Q 18.6 6.25 18.82 5.91 Q 19.04 5.57 19.21 5.18 Q 19.38 4.79 19.34 4.2 L 19.34 4.2 L 19.87 4.05 Q 20.12 2.73 20.63 1.68 Q 21.14 0.63 21.78 -0.49 L 21.78 -0.49 L 21.78 -0.73 Q 21.78 -1.22 21.92 -1.56 Q 22.07 -1.9 21.97 -2.44 L 21.97 -2.44 Q 22.31 -2.54 22.46 -2.83 Q 22.61 -3.13 22.71 -3.44 Q 22.8 -3.76 22.92 -4.08 Q 23.05 -4.39 23.34 -4.54 L 23.34 -4.54 L 23.34 -4.93 Q 23.29 -5.37 23.41 -5.79 Q 23.54 -6.2 23.34 -6.64 L 23.34 -6.64 Q 23.73 -6.79 23.93 -7.13 Q 24.12 -7.47 24.24 -7.86 Q 24.37 -8.25 24.39 -8.69 Q 24.41 -9.13 24.41 -9.47 L 24.41 -9.47 Q 24.76 -9.91 24.9 -10.52 Q 25.05 -11.13 25.15 -11.77 Q 25.24 -12.4 25.42 -12.99 Q 25.59 -13.57 25.98 -14.01 L 25.98 -14.01 Q 25.88 -14.26 25.88 -14.45 L 25.88 -14.45 L 25.88 -14.89 Q 25.88 -15.82 26.17 -16.58 Q 26.46 -17.33 26.71 -18.21 L 26.71 -18.21 Q 27.34 -20.41 27.61 -22.73 Q 27.88 -25.05 28.42 -27.29 L 28.42 -27.29 Q 28.47 -27.54 28.61 -28.08 Q 28.76 -28.61 28.91 -29.17 Q 29.05 -29.74 29.17 -30.2 Q 29.3 -30.66 29.3 -30.81 L 29.3 -30.81 Q 29.3 -31.2 29.13 -31.35 Q 28.96 -31.49 28.96 -31.84 L 28.96 -31.84 Q 29.25 -32.28 29.35 -32.96 Q 29.44 -33.64 29.49 -34.4 Q 29.54 -35.16 29.52 -35.86 Q 29.49 -36.57 29.49 -37.11 L 29.49 -37.11 Q 29.49 -37.65 29.74 -38.48 Q 29.98 -39.31 30.08 -39.94 L 30.08 -39.94 Q 30.32 -41.6 30.4 -43.24 Q 30.47 -44.87 30.57 -46.53 L 30.57 -46.53 Q 30.91 -46.73 31.05 -47.05 Q 31.2 -47.36 31.2 -47.71 L 31.2 -47.71 Q 31.2 -48.24 31.08 -48.73 Q 30.96 -49.22 30.96 -49.76 L 30.96 -49.76 Q 30.96 -50 31.01 -50.27 Q 31.05 -50.54 31.25 -50.73 L 31.25 -50.73 Q 31.2 -51.07 31.18 -51.42 Q 31.15 -51.76 30.91 -52 L 30.91 -52 Q 31.15 -52.64 31.15 -53.27 L 31.15 -53.27 Q 31.15 -53.86 31.03 -54.44 Q 30.91 -55.03 30.91 -55.66 L 30.91 -55.66 Q 30.91 -56.88 31.93 -57.42 L 31.93 -57.42 L 32.62 -57.42 Q 33.11 -57.42 33.59 -57.47 Q 34.08 -57.52 34.62 -57.76 L 34.62 -57.76 Q 35.25 -57.08 35.94 -56.27 Q 36.62 -55.47 37.11 -54.54 Q 37.6 -53.61 37.84 -52.64 Q 38.09 -51.66 37.89 -50.59 L 37.89 -50.59 Q 38.09 -50.2 38.13 -49.8 Q 38.18 -49.41 38.43 -49.02 Z M 28.27 -22.22 L 28.47 -22.41 Q 28.27 -22.46 28.2 -22.58 Q 28.13 -22.71 27.88 -22.75 L 27.88 -22.75 L 27.88 -22.22 L 28.27 -22.22 Z" stroke-linecap="round"/>
</g>
		<g transform="matrix(2.7778 0 0 2.7778 0.0036 0.004)" id="tight-bounds">
<rect style="stroke: none; stroke-width: 1; stroke-dasharray: none; stroke-linecap: butt; stroke-dashoffset: 0; stroke-linejoin: miter; stroke-miterlimit: 4; is-custom-font: none; font-file-url: none; fill: none; fill-rule: nonzero; opacity: 1;" x="-160" y="-180" rx="0" ry="0" width="320" height="360"/>
</g>
</g>
</g>
</svg>