<svg xmlns="http://www.w3.org/2000/svg" version="1.1" xmlns:xlink="http://www.w3.org/1999/xlink" xmlns:svgjs="http://svgjs.dev/svgjs" width="2000" height="1500" viewBox="0 0 2000 1500"><rect width="2000" height="1500" fill="#010536"></rect><g transform="matrix(0.4444444444444444,0,0,0.4444444444444444,555.5555555555557,250)"><svg viewBox="0 0 320 360" data-background-color="#010536" preserveAspectRatio="xMidYMid meet" height="2250" width="2000" xmlns="http://www.w3.org/2000/svg" xmlns:xlink="http://www.w3.org/1999/xlink"><g id="tight-bounds" transform="matrix(1,0,0,1,0,0)"><svg viewBox="0 0 320 360" height="360" width="320"><g><svg></svg></g><g><svg viewBox="0 0 320 360" height="360" width="320"><g><path xmlns="http://www.w3.org/2000/svg" d="M20.961 227.22l3.726 4.658-1.863-6.056c-0.466-2.795-3.726 0.466-1.863 1.398M25.153 224.425c1.397 2.329 2.795 4.658 2.795 6.987 0 3.261 2.795 4.658 5.123 5.589-3.261-3.726-5.124-13.974-7.918-12.576M204.017 26.929c7.918 0 15.371-0.932 23.756 0.931 20.495 5.124 37.729 15.371 49.374 29.811l32.606 52.169c1.397 13.042 4.192 27.482 3.726 43.319 3.261 0 2.795-4.658 6.521-5.59-3.726 9.316-5.59 20.961-6.521 34.469-2.329-7.453 0-18.632 0.466-24.687-3.261 5.124-5.124 1.397-5.124-0.932 0.466-3.726-1.397-3.261-2.795-4.658-5.124-4.658-8.384-9.782-12.11-17.7 2.329-6.055 2.795-14.905-4.658-19.563-2.329-1.397-5.124-3.726-6.521-7.453-1.863-5.124-5.124-11.179-4.193-19.097 0.466-2.329-6.987 5.124-11.179 1.863-18.166-12.576-36.332-27.016-58.224-39.127-11.645 0-20.029-4.192-24.221-9.316-3.726-4.658-0.932-10.713 4.658-11.179 3.261 0 6.987-0.932 9.782 0.932 0.466-1.863 2.329-4.192 4.657-4.192M157.904 16.215l0.932 0.466c4.658 0.932 6.987 7.453 12.11 5.124 0 3.261 0.466 6.521-0.466 8.85-1.397 3.726-5.59 3.726-8.85 3.726-31.208-1.863-49.374 11.179-68.471 22.358-5.124 3.261-10.713 5.59-14.906 9.782-20.029 18.632-41.921 35.866-47.045 70.335l-4.192 38.195c-0.466 4.192-5.124 8.384-4.192 13.508l3.26 22.824c-3.261-3.261-5.124 0.932-4.192 2.795 0.466 1.397 2.329 6.055 5.124 1.863 3.726 6.987 7.453 20.495 12.576 26.55 15.837 18.632 36.332 35.4 53.101 52.169 4.192-0.932 7.453-0.932 8.384-3.727 1.397 2.795-1.397 5.59-3.726 6.056 7.453 4.658 15.837 8.85 27.016 9.781 14.44 0.932 27.948 3.261 40.524 6.522 6.521-1.863 13.042-2.795 20.029-3.261 2.329 0 3.726-3.726 6.521-4.658l0.466-4.658c2.795 4.192 2.329-1.397 0.466-4.192 3.261 2.795 4.192 5.124 5.589 6.987 0-1.397 3.726-6.521 3.727-0.466l0.931-6.055c1.397-0.932 1.863 5.124 3.261 0.931 1.397-4.192 4.192-0.932 6.987-2.329-0.932 1.863-0.466 5.59 2.794 3.261l3.727-3.261c2.329 5.59 6.055 3.261 7.918 2.329 20.495-13.042 40.99-28.413 60.553-43.784l-0.466 6.055 2.329-7.453c2.329 2.329 4.192 0.466 5.124-0.931 2.795-4.658 6.521-9.316 12.577-13.508-7.453 20.029-16.303 35.866-27.482 48.908l-4.658 5.59c0 3.261-0.932 7.453-4.658 7.918-1.863 0.466-5.59-0.932-8.384 1.863-1.397 1.863 3.261 5.59-0.466 2.795-3.261-2.329-6.521 0-10.248 0.932-2.795 0.932 1.863 3.726 2.795 5.589 0.932 1.863 1.863 3.726 1.398 6.056l-5.124-5.59c-6.055 3.261-9.782 9.316-14.906 13.974-2.329 1.863-1.397 5.124-1.397 7.918-3.261 0-6.987-0.932-8.85 0.932-1.397 1.863-0.932 4.658-0.932 7.453-4.658-0.466-5.124-7.453-9.315-6.056-4.192 0.932-8.85 1.397-12.577 3.727 2.795 5.59-4.658 2.329-3.726 3.26-6.987-4.192-13.042-7.453-20.495-4.658-15.837-5.124-35.4-2.795-49.84-0.931 0-2.329 0.466-4.658-0.466-5.124-0.932 2.329-3.726 1.397-3.26 1.397-8.85-6.055-17.7-9.782-27.016-14.905-8.384 0.932-16.303-3.261-18.632-5.59-6.521-6.055-13.974-2.795-20.029-4.192-13.042-3.261-17.7-16.769-19.098-26.084-0.932-4.658-4.658-6.521-6.055-6.056-6.055-19.563-15.371-37.263-22.824-55.429-1.863-4.658-1.397-9.316-1.397-14.44 2.329 0.932 4.658 0.466 4.192-2.794-2.329-15.371-7.918-27.016-13.974-38.195 3.261-15.837 3.726-34.469 11.179-48.443 6.521-12.576 18.632-19.098 27.016-29.811 2.795-3.726 2.795-8.85 5.59-12.11 9.316-9.316 18.632-19.098 28.879-27.482 4.658-3.726 10.247 0 17.234-1.397 2.329-8.384 11.645-15.837 20.495-13.508 3.726 0.932 11.179-8.85 13.508-9.782 3.726-1.397 1.863 3.726 1.863 6.987 8.85-6.987 20.961-10.713 32.14-14.906" fill="#fbfbf8" fill-rule="nonzero" stroke="none" stroke-width="1" stroke-linecap="butt" stroke-linejoin="miter" stroke-miterlimit="10" stroke-dasharray="" stroke-dashoffset="0" font-family="none" font-weight="none" font-size="none" text-anchor="none" style="mix-blend-mode: normal" data-fill-palette-color="tertiary"></path></g><g transform="matrix(1,0,0,1,111.18037135278516,90)"><svg viewBox="0 0 97.6392572944297 180" height="180" width="97.6392572944297"><g><svg viewBox="0 0 97.6392572944297 180" height="180" width="97.6392572944297"><g><svg viewBox="0 0 97.6392572944297 180" height="180" width="97.6392572944297"><g><svg viewBox="0 0 97.6392572944297 180" height="180" width="97.6392572944297"><g id="textblocktransform"><svg viewBox="0 0 97.6392572944297 180" height="180" width="97.6392572944297" id="textblock"><g><svg viewBox="0 0 97.6392572944297 180" height="180" width="97.6392572944297"><g transform="matrix(1,0,0,1,0,0)"><svg width="97.6392572944297" viewBox="-1.5099999904632568 -57.7599983215332 39.939998626708984 73.62999725341797" height="180" data-palette-color="#fbfbf8"><path d="M38.43-49.02L38.43-49.02Q37.74-48.05 36.99-47.19 36.23-46.34 35.11-45.85L35.11-45.85Q34.52-42.48 34.16-39.06 33.79-35.64 33.37-32.23 32.96-28.81 32.45-25.42 31.93-22.02 31.05-18.7L31.05-18.7 31.1-18.12Q31.2-17.14 30.86-16.26 30.52-15.38 30.57-14.36L30.57-14.36Q29.88-12.65 29.39-10.57 28.91-8.5 28.81-6.64L28.81-6.64Q28.32-5.81 28-4.83 27.69-3.86 27.37-2.86 27.05-1.86 26.66-0.95 26.27-0.05 25.63 0.68L25.63 0.68Q25.49 1.81 25.07 2.81 24.66 3.81 24.15 4.79 23.63 5.76 23.17 6.71 22.71 7.67 22.51 8.74L22.51 8.74Q21.68 10.01 20.85 11.21 20.02 12.4 19.34 13.72L19.34 13.72Q18.7 14.01 18.24 14.38 17.77 14.75 17.33 15.06 16.89 15.38 16.33 15.63 15.77 15.87 14.99 15.87L14.99 15.87Q14.79 15.87 14.62 15.84 14.45 15.82 14.26 15.82L14.26 15.82Q13.57 15.28 12.89 14.77 12.21 14.26 11.43 13.87L11.43 13.87Q11.43 13.57 11.35 13.38 11.28 13.18 11.23 12.99 11.18 12.79 11.18 12.6 11.18 12.4 11.28 12.11L11.28 12.11Q10.84 11.82 10.28 11.06 9.72 10.3 9.72 9.77L9.72 9.77Q9.72 9.28 10.06 9.28L10.06 9.28Q9.96 8.79 9.74 8.33 9.52 7.86 9.52 7.37L9.52 7.37Q9.52 7.03 9.72 6.64L9.72 6.64Q9.18 5.37 8.74 4.03 8.3 2.69 8.15 1.27L8.15 1.27Q7.67 0.63 7.4-0.22 7.13-1.07 6.98-2 6.84-2.93 6.74-3.83 6.64-4.74 6.49-5.52L6.49-5.52Q6.45-5.81 6.25-6.47 6.05-7.13 6.05-7.37L6.05-7.37Q6.05-7.67 6.18-7.81 6.3-7.96 6.4-8.2L6.4-8.2Q5.81-10.55 5.44-12.94 5.08-15.33 4.76-17.72 4.44-20.12 4.03-22.49 3.61-24.85 2.88-27.15L2.88-27.15 2.88-27.59Q2.88-29.15 1.66-30.08L1.66-30.08Q1.9-30.81 1.9-31.3L1.9-31.3Q1.9-31.93 1.73-32.52 1.56-33.11 1.37-33.69 1.17-34.28 1.1-34.86 1.03-35.45 1.17-36.04L1.17-36.04Q0.63-36.62 0.29-37.3-0.05-37.99-0.59-38.48L-0.59-38.48-0.63-38.77Q-0.63-39.01-0.51-39.21-0.39-39.4-0.39-39.65L-0.39-39.65Q-0.39-39.99-0.56-40.23-0.73-40.48-0.95-40.67-1.17-40.87-1.34-41.06-1.51-41.26-1.51-41.5L-1.51-41.5Q-1.51-42.09-1.12-42.43-0.73-42.77-0.24-43.04 0.24-43.31 0.71-43.6 1.17-43.9 1.32-44.43L1.32-44.43Q1.71-44.34 2.1-44.31 2.49-44.29 2.88-44.09L2.88-44.09Q2.93-44.14 2.93-44.24L2.93-44.24Q2.93-44.38 2.47-44.51 2-44.63 1.86-44.82L1.86-44.82Q2.25-44.92 2.44-44.92L2.44-44.92Q3.42-44.92 4.32-44.43 5.22-43.95 6.05-43.41L6.05-43.41Q6.15-42.97 6.1-42.5 6.05-42.04 6.4-41.65L6.4-41.65Q6.35-41.41 6.37-41.21 6.4-41.02 6.4-40.82L6.4-40.82Q6.4-40.58 6.32-40.41 6.25-40.23 6.05-40.23L6.05-40.23Q6.4-39.65 6.52-38.82 6.64-37.99 6.76-37.11 6.88-36.23 7.08-35.4 7.28-34.57 7.81-33.94L7.81-33.94Q7.71-33.64 7.69-33.35 7.67-33.06 7.67-32.71L7.67-32.71Q7.67-31.15 8.06-29.64 8.45-28.13 8.45-26.56L8.45-26.56Q8.45-25.63 8.15-24.85L8.15-24.85Q8.15-24.41 8.45-24.15 8.74-23.88 8.84-23.44L8.84-23.44Q8.59-22.85 8.59-22.31L8.59-22.31Q8.59-21.19 9.03-20.19 9.47-19.19 9.47-18.12L9.47-18.12Q9.47-17.77 9.38-17.48 9.28-17.19 9.18-16.94L9.18-16.94Q9.62-16.5 9.64-15.82 9.67-15.14 10.06-14.7L10.06-14.7Q10.01-14.45 9.99-14.21 9.96-13.96 9.72-13.82L9.72-13.82Q9.96-13.48 9.99-12.92 10.01-12.35 10.4-12.26L10.4-12.26Q10.3-12.01 10.25-11.82 10.21-11.62 10.21-11.38L10.21-11.38Q10.21-10.84 10.35-10.4L10.35-10.4 10.64-9.52Q10.79-9.08 10.86-8.59 10.94-8.11 10.74-7.52L10.74-7.52Q10.94-7.23 11.06-6.84 11.18-6.45 11.28-6.03 11.38-5.62 11.57-5.3 11.77-4.98 12.16-4.88L12.16-4.88Q12.21-4.59 11.94-4.59 11.67-4.59 11.67-4.35L11.67-4.35Q11.67-3.96 11.96-3.39 12.26-2.83 12.5-2.59L12.5-2.59Q12.45-2.39 12.45-2.2L12.45-2.2 12.45-1.76Q12.45-1.07 12.65-0.37 12.84 0.34 13.01 1.05 13.18 1.76 13.28 2.44 13.38 3.13 13.18 3.71L13.18 3.71Q13.57 4.39 13.87 5.18 14.16 5.96 14.79 6.49L14.79 6.49Q14.79 7.32 15.14 8.08 15.48 8.84 16.02 9.52L16.02 9.52Q16.5 9.52 16.75 9.2 16.99 8.89 17.14 8.5 17.29 8.11 17.48 7.76 17.68 7.42 18.12 7.37L18.12 7.37Q18.16 6.88 18.38 6.57 18.6 6.25 18.82 5.91 19.04 5.57 19.21 5.18 19.38 4.79 19.34 4.2L19.34 4.2 19.87 4.05Q20.12 2.73 20.63 1.68 21.14 0.63 21.78-0.49L21.78-0.49 21.78-0.73Q21.78-1.22 21.92-1.56 22.07-1.9 21.97-2.44L21.97-2.44Q22.31-2.54 22.46-2.83 22.61-3.13 22.71-3.44 22.8-3.76 22.92-4.08 23.05-4.39 23.34-4.54L23.34-4.54 23.34-4.93Q23.29-5.37 23.41-5.79 23.54-6.2 23.34-6.64L23.34-6.64Q23.73-6.79 23.93-7.13 24.12-7.47 24.24-7.86 24.37-8.25 24.39-8.69 24.41-9.13 24.41-9.47L24.41-9.47Q24.76-9.91 24.9-10.52 25.05-11.13 25.15-11.77 25.24-12.4 25.42-12.99 25.59-13.57 25.98-14.01L25.98-14.01Q25.88-14.26 25.88-14.45L25.88-14.45 25.88-14.89Q25.88-15.82 26.17-16.58 26.46-17.33 26.71-18.21L26.71-18.21Q27.34-20.41 27.61-22.73 27.88-25.05 28.42-27.29L28.42-27.29Q28.47-27.54 28.61-28.08 28.76-28.61 28.91-29.17 29.05-29.74 29.17-30.2 29.3-30.66 29.3-30.81L29.3-30.81Q29.3-31.2 29.13-31.35 28.96-31.49 28.96-31.84L28.96-31.84Q29.25-32.28 29.35-32.96 29.44-33.64 29.49-34.4 29.54-35.16 29.52-35.86 29.49-36.57 29.49-37.11L29.49-37.11Q29.49-37.65 29.74-38.48 29.98-39.31 30.08-39.94L30.08-39.94Q30.32-41.6 30.4-43.24 30.47-44.87 30.57-46.53L30.57-46.53Q30.91-46.73 31.05-47.05 31.2-47.36 31.2-47.71L31.2-47.71Q31.2-48.24 31.08-48.73 30.96-49.22 30.96-49.76L30.96-49.76Q30.96-50 31.01-50.27 31.05-50.54 31.25-50.73L31.25-50.73Q31.2-51.07 31.18-51.42 31.15-51.76 30.91-52L30.91-52Q31.15-52.64 31.15-53.27L31.15-53.27Q31.15-53.86 31.03-54.44 30.91-55.03 30.91-55.66L30.91-55.66Q30.91-56.88 31.93-57.42L31.93-57.42 32.62-57.42Q33.11-57.42 33.59-57.47 34.08-57.52 34.62-57.76L34.62-57.76Q35.25-57.08 35.94-56.27 36.62-55.47 37.11-54.54 37.6-53.61 37.84-52.64 38.09-51.66 37.89-50.59L37.89-50.59Q38.09-50.2 38.13-49.8 38.18-49.41 38.43-49.02ZM28.27-22.22L28.47-22.41Q28.27-22.46 28.2-22.58 28.13-22.71 27.88-22.75L27.88-22.75 27.88-22.22 28.27-22.22Z" opacity="1" transform="matrix(1,0,0,1,0,0)" fill="#fbfbf8" class="wordmark-text-0" data-fill-palette-color="primary" id="text-0"></path></svg></g></svg></g></svg></g></svg></g><g></g></svg></g></svg></g></svg></g></svg></g><defs></defs></svg><rect width="320" height="360" fill="none" stroke="none" visibility="hidden"></rect></g></svg></g></svg>